# xmcd
#
# Track frame offsets:
# 150
# 13042
# 26337
# 39087
# 51240
# 64855
# 75925
# 86845
# 100125
# 114230
#
# Disc length: 1707 seconds
#
#
# Revision: 0
# Processed by: cddbd v1.5.1PL2 Copyright (c) Steve Scherf et al.
# Submitted via: FreeRIP 2.942 
#
DISCID=6a06a90a
DTITLE=Mickey Gilley - Best Of The Best
DYEAR=2001
DGENRE=Country
TTITLE0=Room Full Of Roses
TTITLE1=I Overlooked An Orchid
TTITLE2=City Lights
TTITLE3=Window Up Above
TTITLE4=Don't The Girls All Get Prettier
TTITLE5=Bouquet Of Roses
TTITLE6=Bring It On Home To Me
TTITLE7=True Love Ways
TTITLE8=You Don't Know Me
TTITLE9=Candy Man
EXTD=Federal
EXTT0=
EXTT1=
EXTT2=
EXTT3=
EXTT4=
EXTT5=
EXTT6=
EXTT7=
EXTT8=
EXTT9=
PLAYORDER=
